<?xml version="1.0" encoding="UTF-8" standalone="no"?>
<!DOCTYPE svg PUBLIC "-//W3C//DTD SVG 1.1//EN" "http://www.w3.org/Graphics/SVG/1.1/DTD/svg11.dtd">
<svg version="1.1" xmlns="http://www.w3.org/2000/svg" xmlns:xlink="http://www.w3.org/1999/xlink" preserveAspectRatio="xMidYMid meet" viewBox="0 0 640 640" width="640" height="640"><defs><path d="M114.5 46.31L167.16 46.31L167.16 164.14L114.5 164.14L114.5 46.31Z" id="aKNUsxyJy"></path><path d="M164.12 19.29C164.12 29.94 153.68 38.59 140.83 38.59C127.97 38.59 117.53 29.94 117.53 19.29C117.53 8.65 127.97 0 140.83 0C153.68 0 164.12 8.65 164.12 19.29Z" id="bbylAPdGd"></path><path d="M88.07 46.31L106.89 46.31L106.89 93.37L88.07 93.37L88.07 46.31Z" id="c3E7ZtUaKp"></path><path d="M88.07 97.03L106.89 97.03L106.89 136.25L88.07 136.25L88.07 97.03Z" id="dIRZTODYJ"></path><path d="M107.1 149.59C107.1 155.02 102.34 159.43 96.47 159.43C90.6 159.43 85.83 155.02 85.83 149.59C85.83 144.15 90.6 139.74 96.47 139.74C102.34 139.74 107.1 144.15 107.1 149.59Z" id="eGFsoF82M"></path><path d="M176.39 46.31L195.2 46.31L195.2 93.37L176.39 93.37L176.39 46.31Z" id="bwyMfhjZ"></path><path d="M176.39 97.03L195.2 97.03L195.2 136.25L176.39 136.25L176.39 97.03Z" id="c6uWUJl1C"></path><path d="M195.42 149.59C195.42 155.02 190.65 159.43 184.78 159.43C178.91 159.43 174.15 155.02 174.15 149.59C174.15 144.15 178.91 139.74 184.78 139.74C190.65 139.74 195.42 144.15 195.42 149.59Z" id="a7xgPpaKd"></path><path d="M116.73 169.79L135.55 169.79L135.55 216.85L116.73 216.85L116.73 169.79Z" id="d45DBOsbsf"></path><path d="M116.73 220.51L135.55 220.51L135.55 259.73L116.73 259.73L116.73 220.51Z" id="f8FbHGgRh"></path><path d="M135.76 273.07C135.76 278.5 131 282.92 125.13 282.92C119.26 282.92 114.5 278.5 114.5 273.07C114.5 267.63 119.26 263.22 125.13 263.22C131 263.22 135.76 267.63 135.76 273.07Z" id="b4WeVximJ"></path><path d="M148.13 169.79L166.95 169.79L166.95 216.85L148.13 216.85L148.13 169.79Z" id="bw0vS5Vkt"></path><path d="M148.13 220.51L166.95 220.51L166.95 259.73L148.13 259.73L148.13 220.51Z" id="a21DHPxccq"></path><path d="M167.16 273.07C167.16 278.5 162.39 282.92 156.53 282.92C150.66 282.92 145.89 278.5 145.89 273.07C145.89 267.63 150.66 263.22 156.53 263.22C162.39 263.22 167.16 267.63 167.16 273.07Z" id="ilswXquqU"></path><path d="M445.17 77.23L483.84 112.98L403.85 199.51L365.18 163.76L445.17 77.23Z" id="a3Q5ThdzK5"></path><path d="M499.95 91.09C492.72 98.91 479.18 98.17 469.74 89.44C460.3 80.71 458.51 67.28 465.74 59.46C472.97 51.64 486.5 52.38 495.94 61.11C505.38 69.83 507.18 83.27 499.95 91.09Z" id="b1qvRlqXH"></path><path d="M441.38 77.2L438.55 95.8L392.02 88.72L394.85 70.12L441.38 77.2Z" id="a51dbWYJ0a"></path><path d="M374.63 99.25L388.28 86.29L415.28 114.73L401.64 127.69L374.63 99.25Z" id="a1XdF4qCel"></path><path d="M423.43 133.62C419.74 137.61 413.24 137.62 408.93 133.63C404.62 129.65 404.12 123.17 407.81 119.18C411.5 115.19 418 115.19 422.31 119.17C426.62 123.15 427.12 129.63 423.43 133.62Z" id="eHH9YBlfP"></path><path d="M468.7 121.07L487.29 118.23L494.4 164.75L475.8 167.6L468.7 121.07Z" id="k3Q52MvpeW"></path><path d="M480.43 166.04L468.44 180.54L438.22 155.54L450.21 141.04L480.43 166.04Z" id="a6SWLVuYj"></path><path d="M445.83 148.22C442.14 152.21 435.65 152.21 431.34 148.23C427.03 144.25 426.52 137.77 430.21 133.78C433.9 129.79 440.4 129.78 444.71 133.77C449.02 137.75 449.52 144.23 445.83 148.22Z" id="e3Okz5GibP"></path><path d="M366.72 182.69L380.62 195.37L348.9 230.13L335 217.45L366.72 182.69Z" id="c407N9jZ5"></path><path d="M332.73 220.51L346.8 233L320.78 262.34L306.7 249.85L332.73 220.51Z" id="c1joJhdKGt"></path><path d="M312.09 272.46C308.48 276.52 301.99 276.66 297.6 272.77C293.21 268.87 292.57 262.41 296.18 258.34C299.79 254.28 306.28 254.14 310.67 258.03C315.06 261.93 315.7 268.39 312.09 272.46Z" id="feFWVDSmh"></path><path d="M372.72 203.15L383.66 187.85L421.94 215.22L411 230.53L372.72 203.15Z" id="a6hLffhG9"></path><path d="M415.97 220.51L434.78 220.51L434.78 259.73L415.97 259.73L415.97 220.51Z" id="d3YRBRtZEb"></path><path d="M434.99 273.07C434.99 278.5 430.23 282.92 424.36 282.92C418.49 282.92 413.73 278.5 413.73 273.07C413.73 267.63 418.49 263.22 424.36 263.22C430.23 263.22 434.99 267.63 434.99 273.07Z" id="c2c2k93qum"></path><path d="M122 374.64L174.67 374.64L174.67 492.47L122 492.47L122 374.64Z" id="b3ZSAjMqd7"></path><path d="M171.63 347.63C171.63 358.28 161.19 366.92 148.33 366.92C135.48 366.92 125.04 358.28 125.04 347.63C125.04 336.98 135.48 328.33 148.33 328.33C161.19 328.33 171.63 336.98 171.63 347.63Z" id="a4BXkYVJl4"></path><path d="M108.6 373.09L124.89 382.49L101.38 423.26L85.08 413.86L108.6 373.09Z" id="bn0KGH4Fo"></path><path d="M104.09 443.53L92.79 428.49L124.15 404.94L135.45 419.98L104.09 443.53Z" id="d2XO9z5vP6"></path><path d="M134.69 396.76C139.03 393.49 145.42 394.65 148.95 399.34C152.47 404.04 151.81 410.5 147.46 413.76C143.11 417.03 136.72 415.87 133.2 411.17C129.67 406.48 130.34 400.02 134.69 396.76Z" id="eHQmieup1"></path><path d="M172.18 384.16L187.66 373.46L214.42 412.18L198.95 422.88L172.18 384.16Z" id="dcwUTgOa6"></path><path d="M203.67 420.19L196.35 437.52L160.22 422.27L167.54 404.94L203.67 420.19Z" id="aDsAJYmtN"></path><path d="M150.94 415.22C145.93 413.11 143.72 407 146 401.59C148.28 396.19 154.2 393.51 159.21 395.63C164.22 397.74 166.43 403.85 164.15 409.25C161.86 414.66 155.94 417.33 150.94 415.22Z" id="b7g9W8LRo"></path><path d="M128.3 489.64L142.79 501.65L112.77 537.89L98.28 525.89L128.3 489.64Z" id="b2lyE8RmbR"></path><path d="M112.84 548.85L106.89 531L144.09 518.58L150.05 536.43L112.84 548.85Z" id="aZA09RXjq"></path><path d="M155.64 498.12L174.45 498.12L174.45 545.19L155.64 545.19L155.64 498.12Z" id="c3rXNf8gV9"></path><path d="M149.16 515.41C153.63 512.32 159.97 513.72 163.31 518.55C166.65 523.38 165.73 529.81 161.26 532.9C156.78 535.99 150.44 534.58 147.11 529.75C143.77 524.93 144.69 518.5 149.16 515.41Z" id="d6JqjfBhO"></path><path d="M155.64 548.85L174.45 548.85L174.45 588.07L155.64 588.07L155.64 548.85Z" id="d1bHggOUgN"></path><path d="M174.67 601.4C174.67 606.84 169.9 611.25 164.03 611.25C158.16 611.25 153.4 606.84 153.4 601.4C153.4 595.97 158.16 591.55 164.03 591.55C169.9 591.55 174.67 595.97 174.67 601.4Z" id="ewGnSVfX4"></path><path d="M393.23 424.66L421.05 437.87L370.51 544.31L342.7 531.11L393.23 424.66Z" id="aTB7BTGOH"></path><path d="M441.1 410.89C441.1 421.53 430.67 430.18 417.81 430.18C404.95 430.18 394.52 421.53 394.52 410.89C394.52 400.24 404.95 391.59 417.81 391.59C430.67 391.59 441.1 400.24 441.1 410.89Z" id="i4TLsFo3ae"></path><path d="M414.02 434.43L398.02 424.54L422.76 384.5L438.76 394.39L414.02 434.43Z" id="h1bbCGIoOA"></path><path d="M440.69 391.28L424.68 381.39L445.3 348.02L461.3 357.91L440.69 391.28Z" id="f1gSq1TLKd"></path><path d="M452.25 338.91C455.11 334.29 461.49 333.04 466.48 336.12C471.47 339.21 473.21 345.47 470.35 350.09C467.49 354.72 461.12 355.97 456.12 352.88C451.13 349.8 449.4 343.54 452.25 338.91Z" id="a1iY94vME2"></path><path d="M360.94 556.53L361.47 537.73L408.52 539.05L407.99 557.85L360.94 556.53Z" id="b2tb4Tuy4T"></path><path d="M406.65 552.9L422.24 563.44L400.29 595.93L384.7 585.4L406.65 552.9Z" id="c2myOFC7g1"></path><path d="M393 607.1C389.96 611.61 383.54 612.6 378.67 609.31C373.81 606.02 372.33 599.7 375.38 595.2C378.42 590.69 384.84 589.7 389.7 592.99C394.57 596.27 396.04 602.6 393 607.1Z" id="b1haOMDyry"></path><path d="M435.37 410.89C435.37 414.2 433.27 416.89 430.68 416.89C428.09 416.89 425.99 414.2 425.99 410.89C425.99 407.57 428.09 404.88 430.68 404.88C433.27 404.88 435.37 407.57 435.37 410.89Z" id="c29QGHAw7J"></path></defs><g><g><g><use xlink:href="#aKNUsxyJy" opacity="1" fill="#1c11ed" fill-opacity="1"></use></g><g><use xlink:href="#bbylAPdGd" opacity="1" fill="#83978f" fill-opacity="1"></use></g><g><use xlink:href="#c3E7ZtUaKp" opacity="1" fill="#e90f94" fill-opacity="1"></use></g><g><use xlink:href="#dIRZTODYJ" opacity="1" fill="#e90f94" fill-opacity="1"></use></g><g><use xlink:href="#eGFsoF82M" opacity="1" fill="#83978f" fill-opacity="1"></use></g><g><use xlink:href="#bwyMfhjZ" opacity="1" fill="#e90f94" fill-opacity="1"></use></g><g><use xlink:href="#c6uWUJl1C" opacity="1" fill="#e90f94" fill-opacity="1"></use></g><g><use xlink:href="#a7xgPpaKd" opacity="1" fill="#83978f" fill-opacity="1"></use></g><g><use xlink:href="#d45DBOsbsf" opacity="1" fill="#a411ed" fill-opacity="1"></use></g><g><use xlink:href="#f8FbHGgRh" opacity="1" fill="#a411ed" fill-opacity="1"></use></g><g><use xlink:href="#b4WeVximJ" opacity="1" fill="#83978f" fill-opacity="1"></use></g><g><use xlink:href="#bw0vS5Vkt" opacity="1" fill="#a411ed" fill-opacity="1"></use></g><g><use xlink:href="#a21DHPxccq" opacity="1" fill="#a411ed" fill-opacity="1"></use></g><g><use xlink:href="#ilswXquqU" opacity="1" fill="#83978f" fill-opacity="1"></use></g><g><use xlink:href="#a3Q5ThdzK5" opacity="1" fill="#1c11ed" fill-opacity="1"></use></g><g><use xlink:href="#b1qvRlqXH" opacity="1" fill="#83978f" fill-opacity="1"></use></g><g><use xlink:href="#a51dbWYJ0a" opacity="1" fill="#e90f94" fill-opacity="1"></use></g><g><use xlink:href="#a1XdF4qCel" opacity="1" fill="#e90f94" fill-opacity="1"></use></g><g><use xlink:href="#eHH9YBlfP" opacity="1" fill="#83978f" fill-opacity="1"></use></g><g><use xlink:href="#k3Q52MvpeW" opacity="1" fill="#e90f94" fill-opacity="1"></use></g><g><use xlink:href="#a6SWLVuYj" opacity="1" fill="#e90f94" fill-opacity="1"></use></g><g><use xlink:href="#e3Okz5GibP" opacity="1" fill="#83978f" fill-opacity="1"></use></g><g><use xlink:href="#c407N9jZ5" opacity="1" fill="#a411ed" fill-opacity="1"></use></g><g><use xlink:href="#c1joJhdKGt" opacity="1" fill="#a411ed" fill-opacity="1"></use></g><g><use xlink:href="#feFWVDSmh" opacity="1" fill="#83978f" fill-opacity="1"></use></g><g><use xlink:href="#a6hLffhG9" opacity="1" fill="#a411ed" fill-opacity="1"></use></g><g><use xlink:href="#d3YRBRtZEb" opacity="1" fill="#a411ed" fill-opacity="1"></use></g><g><use xlink:href="#c2c2k93qum" opacity="1" fill="#83978f" fill-opacity="1"></use></g><g><use xlink:href="#b3ZSAjMqd7" opacity="1" fill="#1c11ed" fill-opacity="1"></use></g><g><use xlink:href="#a4BXkYVJl4" opacity="1" fill="#83978f" fill-opacity="1"></use></g><g><use xlink:href="#bn0KGH4Fo" opacity="1" fill="#e90f94" fill-opacity="1"></use></g><g><use xlink:href="#d2XO9z5vP6" opacity="1" fill="#e90f94" fill-opacity="1"></use></g><g><use xlink:href="#eHQmieup1" opacity="1" fill="#83978f" fill-opacity="1"></use></g><g><use xlink:href="#dcwUTgOa6" opacity="1" fill="#e90f94" fill-opacity="1"></use></g><g><use xlink:href="#aDsAJYmtN" opacity="1" fill="#e90f94" fill-opacity="1"></use></g><g><use xlink:href="#b7g9W8LRo" opacity="1" fill="#83978f" fill-opacity="1"></use></g><g><use xlink:href="#b2lyE8RmbR" opacity="1" fill="#a411ed" fill-opacity="1"></use></g><g><use xlink:href="#aZA09RXjq" opacity="1" fill="#a411ed" fill-opacity="1"></use></g><g><use xlink:href="#c3rXNf8gV9" opacity="1" fill="#a411ed" fill-opacity="1"></use></g><g><use xlink:href="#d6JqjfBhO" opacity="1" fill="#83978f" fill-opacity="1"></use></g><g><use xlink:href="#d1bHggOUgN" opacity="1" fill="#a411ed" fill-opacity="1"></use></g><g><use xlink:href="#ewGnSVfX4" opacity="1" fill="#83978f" fill-opacity="1"></use></g><g><use xlink:href="#aTB7BTGOH" opacity="1" fill="#1c11ed" fill-opacity="1"></use></g><g><use xlink:href="#i4TLsFo3ae" opacity="1" fill="#83978f" fill-opacity="1"></use></g><g><use xlink:href="#h1bbCGIoOA" opacity="1" fill="#e90f94" fill-opacity="1"></use></g><g><use xlink:href="#f1gSq1TLKd" opacity="1" fill="#e90f94" fill-opacity="1"></use></g><g><use xlink:href="#a1iY94vME2" opacity="1" fill="#83978f" fill-opacity="1"></use></g><g><use xlink:href="#b2tb4Tuy4T" opacity="1" fill="#a411ed" fill-opacity="1"></use></g><g><use xlink:href="#c2myOFC7g1" opacity="1" fill="#a411ed" fill-opacity="1"></use></g><g><use xlink:href="#b1haOMDyry" opacity="1" fill="#83978f" fill-opacity="1"></use></g><g><use xlink:href="#c29QGHAw7J" opacity="1" fill="#1126ed" fill-opacity="1"></use></g></g></g></svg>